<svg version="1.0" xmlns="http://www.w3.org/2000/svg" width="360" height="360" viewBox="0 0 270 270"><path d="M0 98.3c.1 85.6.2 98 1.5 96.3.8-1 1.2-2.3.8-2.9-.3-.6-.1-.7.5-.3.7.4 1.2 1.3 1.2 2.1 0 .7 1.1 1.6 2.5 1.9 1.4.4 2.5 1.1 2.5 1.7 0 .6-.7.6-2.1-.1-1.1-.7-3.2-.9-4.5-.6L0 197v73h19c17.9 0 19-.1 20-2 .7-1.4.7-2 0-2-.5 0-1-.4-1-.9s.8-.7 1.8-.4c1.6.4 1.8-.1 1.6-3-.2-2.8.2-3.6 2.2-4.5 2.3-1.1 2.4-1 2.4 2.8 0 2.2-.5 4-1.1 4-.5 0-.7.4-.4 1 .3.5 1.3 1 2.2 1 1.1 0 1.4-.6.9-2.4-.3-1.4-.2-2.7.3-3 1.4-.9 6.1 1.8 5.6 3.1-.2.7.2 1.3.9 1.3 1.6 0 2.6-2.1 2.6-5.6 0-1.7.4-2.2 1.5-1.8 1.9.8 1.9.7-.9-5.2-1.3-2.7-2.2-5.2-1.9-5.7.2-.4 1.7-.7 3.4-.7 2.5 0 2.9.4 3 2.7 0 2.5.1 2.6.9.8.5-1.1.9-1.5.9-1 .1.6 1.1 1.5 2.4 2 1.5.7 2.2 1.8 2.2 3.6 0 1.7.4 2.5 1.1 2.2.7-.2 1.5 0 1.9.6.9 1.5 4.1 1.4 7.5-.4 4.8-2.5 4-5.3-3.7-12.6-3.7-3.5-7.6-7.5-8.7-8.8-1.2-1.4-3.6-3.9-5.3-5.7-4.3-4.3-5.3-7.1-5.3-15.7-.1-4-.7-12.2-1.4-18.2-1.1-8.9-1.8-11.7-4-14.9-1.4-2.1-2.6-4.4-2.6-5 0-.7-1.8-3-3.9-5.3-4.7-4.8-5.5-8.2-4.9-19.8.4-7.9.6-8.5 4.1-12.4 2-2.2 3.9-5.3 4.3-6.8 1.5-6.6 4.6-17.1 6.5-21.5 1-2.6 1.9-5.6 1.9-6.7 0-5.8 2.4-12.4 6.6-17.8C70.2 75.3 80.3 64 81.5 64c.4 0 2.3-1.3 4.1-3 1.9-1.6 5.3-4 7.7-5.1 2.3-1.2 5.3-3.4 6.7-4.9 1.6-1.7 4.5-3.1 8-4 3-.7 8.5-2.5 12.2-4.1 8.6-3.8 19.7-4 28.5-.7 3.2 1.1 8.9 2.9 12.7 3.9 5.7 1.5 7.6 2.5 10.5 5.8 2 2.1 4.8 4.2 6.4 4.5 1.5.4 4.7 2.6 7.2 5.1 2.5 2.4 5.3 4.6 6.3 4.9 1.1.4 2.8 2.2 3.8 4.2 1 1.9 2.8 4.1 4 4.9 1.1.7 4.4 4.8 7.3 9.1 4.5 6.6 5.5 9 6.7 15.5.7 4.2 2 9.2 2.8 11 .8 1.9 2.6 7.7 4 12.9s3.5 10.6 4.6 12c5.5 6.8 5.5 6.9 5.5 18.7v11.4l-3.7 3.5c-2.4 2.2-4.1 5-4.8 7.7-.6 2.3-2 6.9-3.1 10.2-3.5 10.2-4.9 17.7-4.9 26.5 0 4.7-.5 9.2-1 10-1.6 2.6-8.2 9.9-14.7 16.2-9.2 9-10.3 10.4-10.3 13 0 5.8 8.6 5.9 11.2.3 1-2.2 1.7-2.6 4.7-2.3 3.3.3 3.6.1 5.2-4.1.9-2.5 2.6-5.2 3.8-6.2 1.1-.9 2.1-2.2 2.1-2.9 0-.6.4-.9.9-.5.5.3 1.2.1 1.6-.5.3-.5 1.7-1 2.9-1 1.3 0 3.1-1 3.9-2.3l1.6-2.2-.5 2.5c-.3 2.4-.3 2.4.8-.3.7-1.7 1.7-2.6 2.6-2.2.7.3 1.8.5 2.3.5.6 0 .1 1.3-1.1 3-1.2 1.6-2.4 2.9-2.8 2.9-1.8-.3-3.2.2-3.2 1 0 .5 1.5.5 3.5.1 2-.5 3.3-.4 2.9.1-.3.5 1.9.9 4.8.9 4.2.1 4.9.3 3.5 1.1-1 .6-3.1.7-4.7.4-2.8-.6-3-.5-3 2.4 0 3.2 1.6 4.9 3.2 3.3 1.7-1.7 4.6-.1 5.2 3 .3 1.7.6 5.9.6 9.4v6.4h-4c-2.2 0-4-.5-4-1 0-1.7-8.7-1.2-9.4.6-1.7 4.4-1.9 4.4 23.4 4.4h24v-48.2l-2.2.6c-1.3.3-2.6.6-3 .6-.5 0-.8 1.3-.8 3 0 2.8-.2 3-3.9 3-4.5 0-5.9-2-3.3-4.7 1.6-1.6 1.6-1.7 0-1-1.1.4-1.8.2-1.8-.5s-1.3-.9-3.4-.5c-3 .5-3.3.3-3-1.9.1-1.3-.2-2.4-.7-2.4-.5 0-.9.4-.9.9s-.9 1.3-2.1 1.6c-1.3.4-1.8 1.2-1.5 2.1.3.9.1 1.2-.4.9-.6-.3-1 .5-1 2 0 2.3.2 2.4 2.1 1.5 1.1-.6 2.5-.9 3.2-.6.7.2.4.5-.5.5-1.1.1-1.8.9-1.8 1.9 0 1.4-.8 1.9-3 1.9-1.6 0-2.7-.4-2.4-.9.3-.4 0-.8-.5-.8-.6 0-1.1.7-1.1 1.6 0 .9-.5 1.2-1.2.8-.8-.5-.9-.2-.5.9.6 1.6-1.2 2.4-2.6 1.1-.9-1 .4-3.4 1.9-3.4.8 0 1.4-.7 1.4-1.6 0-.8.4-1.3.9-1 1 .7 2.2-3.5 2.3-8.3.1-1.7.5-2.8 1-2.5.4.3.8.1.8-.4s1.4-1.5 3-2.2c1.6-.7 3-1.5 3.1-1.9.6-4.9 3.2-8.1 6.5-8.1 1.3 0 2.6-.5 2.9-1 1-1.7 3.8-1.2 3.1.6-.3.9-.2 1.2.5.8 1.3-.7 5.1 3.1 4.1 4.2-.4.4.1.4 1.1.1 1-.4 2.3-.7 2.8-.7s.9-3.3.9-7.4c0-6.3-.3-7.5-1.7-7.8-2.6-.6-7.6 1.2-9.4 3.3-1.3 1.5-1.8 1.6-2.2.5-.3-.7 0-1.9.6-2.6.9-1 .9-1.1 0-.6-.8.5-.9-.2-.1-2.6.6-1.8 1.3-3.9 1.4-4.6.2-.7 1.9-1.9 3.8-2.7 1.9-.8 3.7-2 4-2.7.3-.7.3 0-.1 1.5-.5 2.5-.3 2.8 1.3 2.5 1.8-.3 1.9-2.2 2.2-48.3.2-47.7.2-48.1-1.8-48.2-1.1-.1-2 .4-2 1.3 0 .8-.5 1.4-1 1.4-.7 0-.7-.6 0-1.9 1.6-3.1 1.3-6.4-.6-5.7-1 .4-1.4.1-1.2-.6.5-1.3.9-1.4 5.1-1.7 1.8-.1 1.9-.3.7-1.2-1.1-.8-1.2-1.2-.2-1.6.8-.3 1.2-3.1 1.2-8.9V61h-3c-1.7 0-3.3.7-3.9 1.7-.6 1-1.1 1.4-1.1.9 0-.5.6-1.7 1.4-2.5.8-.9 2.1-3.3 2.9-5.3 1.4-3.3 1.4-3.6 0-3.1-1.1.4-1.4.2-1.1-.8.2-.8 1.4-1.5 2.6-1.7 2.2-.3 2.2-.4 2.2-25.3V0h-49.9l-.3 2.2c-.4 3.1-3.4 3.4-5 .6-1.7-2.9-4.8-3.4-4-.6.3 1.5.7 1.6 1.3.7.4-.8 1.1-1 1.5-.6 1.1 1-.6 2.3-4 3.1-2.6.6-2.8.5-1.7-.8.7-.9 1.1-2.3.7-3.1C208.1.2 195.9 0 104 0H0v98.3zM195.5 6c-.4.6-.1 1.8.6 2.6 1.7 2.1.5 2.8-1.5.9-2-2.1-2.1-4.5 0-4.5.8 0 1.2.5.9 1zm5.5 8c0 .5.6.7 1.4.4 1.7-.6 3.1 1.2 1.6 2.1-.5.3-1 0-1-.7 0-.9-.3-.9-1 .2s-1 1.1-1 .2c0-.7-.4-1.1-.8-.8-.5.3-.9-.1-.9-.9s.4-1.5.9-1.5c.4 0 .8.4.8 1zm10.3-.3c-.7.2-1.9.2-2.5 0-.7-.3-.2-.5 1.2-.5s1.9.2 1.3.5zM27.4 16.5c-.6 1.6-2.4 2.1-2.4.7 0-1.1 1.1-2.2 2.1-2.2.5 0 .6.7.3 1.5zm184 1.9c-.5-1.8-.5-1.8 1 0s1.7 1.8 3.4.3c1-.9 2.2-1.7 2.7-1.7s0 .7-1.1 1.5c-1.6 1.2-1.6 1.4-.3 1.5 1.1 0 1.8 1.1 2.2 3.2.2 1.8.3 3.5.1 3.7-.5.5-4.4-4-4.4-5.1 0-.4-1.3-.8-3-.8-1.9 0-3.3-.7-4-2.1-1.1-2-1.1-2 1.4-.3 2.5 1.6 2.6 1.6 2-.2zM26 19.3c0 .1-.4 1.7-.9 3.5-1.2 3.9-.5 4.2 1 .4.6-1.5 1.3-2.2 1.6-1.6.7 1.9-1.6 6.4-3.2 6.4-.8 0-1.5-.6-1.5-1.4 0-2.9 1.3-7.6 2.1-7.6.5 0 .9.1.9.3zm205.4 2.3c-.6.3-1 1.9-.9 3.7.2 2.6-.1 3.3-1.6 3.3-1.4 0-1.8-.6-1.4-2.1.3-1.1.2-1.4-.1-.7-.3.6-.9 1-1.2.8-.4-.2-.8.7-.8 2-.1 1.6 1 3.4 3.2 5.4 3.6 3.1 4.1 4.4 2.2 5.6-.6.4-.8.3-.4-.4.3-.6.2-1.3-.4-1.7-.5-.3-1-.1-1 .4 0 .7-.7.7-2-.1-1.1-.7-1.8-1.9-1.5-2.6.3-.7.1-1.1-.4-.8-.4.3-1.3-.6-2-2-.6-1.4-.7-2.3-.2-2 .5.3 1.1-.1 1.5-.9.3-.9 0-1.5-.9-1.5-.8 0-1.5-.5-1.5-1 0-.6.5-1 1.1-1 .6 0 .8-.7.5-1.6-.6-1.5-.4-1.5 1-.3 1.6 1.3 1.6 1.2.5-.9s-1-2.2 3.1-2.1c2.4 0 3.8.3 3.2.5zm8.6 11.9c0 1.9-.3 3.6-.7 3.6-6 .9-5.9.9-5.9-3.2.1-3.7.2-3.9 3.4-3.9 3 0 3.2.2 3.2 3.5zM10.7 34.6c-.3.3-1.2.4-1.9.1-.8-.3-.5-.6.6-.6 1.1-.1 1.7.2 1.3.5zM16 36c0 .5-.5 1-1.1 1-.5 0-.7-.5-.4-1 .3-.6.8-1 1.1-1 .2 0 .4.4.4 1zm221.2 5.7c1 .9 1.8 2.3 1.8 3.1 0 1-.8.6-2.5-1.2-1.4-1.5-2.5-2.9-2.5-3.2 0-.9 1.4-.3 3.2 1.3zm11.5 2c-.3 1-.5.4-.5-1.2 0-1.7.2-2.4.5-1.8.2.7.2 2.1 0 3zM26 46c0 .5-.5 1-1.1 1-.5 0-.7-.5-.4-1 .3-.6.8-1 1.1-1 .2 0 .4.4.4 1zm225.1 3.4c.5-.3.9.2.9 1.1 0 .9-.4 1.3-1 1-.5-.3-1 .1-1 .9 0 1.9-.8 2-4 .1l-2.5-1.4 2.8-.1c1.9 0 2.7-.5 2.8-1.8 0-1 .3-1.2.6-.4.2.6.9 1 1.4.6zM252 61c.6 0 1 .5 1 1 0 .6-.8.5-2-.2-1.3-.9-2-2.3-1.9-4.3l.1-3 .9 3.2c.5 1.8 1.4 3.3 1.9 3.3zm5 7.5c0 1.7-2.6 2-3.5.5-.4-.6.1-.7 1.2-.3 1.6.6 1.6.4-.2-1.7l-2-2.3 2.3 1.2c1.2.6 2.2 1.8 2.2 2.6zm1.5 4.3c-.3.3-1.1 0-1.8-.7-.9-1-.8-1.1.6-.5 1 .3 1.5.9 1.2 1.2zM261 75c-1.3.8-1.3 1 .2 1 2.1 0 2.9 1.2 1.9 2.9-.7 1.1-1.3.9-3-.8-2.7-2.7-2.7-3.6.1-3.8 1.8-.2 2 0 .8.7zm8 99.4c0 .3-.4.8-1 1.1-.5.3-1 .1-1-.4 0-.6.5-1.1 1-1.1.6 0 1 .2 1 .4zm-1 3.6c0 .5-.5 1-1.1 1-.5 0-.7-.5-.4-1 .3-.6.8-1 1.1-1 .2 0 .4.4.4 1zM12 202c0 .5-.2 1-.4 1-.3 0-.8-.5-1.1-1-.3-.6-.1-1 .4-1 .6 0 1.1.4 1.1 1zm1 3c0 .5-.2 1-.4 1-.3 0-.8-.5-1.1-1-.3-.6-.1-1 .4-1 .6 0 1.1.4 1.1 1zm3.5 6.1c-.7 1-3.5.1-3.5-1.1 0-.5.9-.6 2-.3s1.7.9 1.5 1.4zm2.8 11.6c-.7.2-1.9.2-2.5 0-.7-.3-.2-.5 1.2-.5s1.9.2 1.3.5zm228.3 9c-1 1-1.9-.5-1-1.8.6-1.1.8-1.1 1.2 0 .2.7.1 1.5-.2 1.8zm-214.9.9c-.3.3-1.2.4-1.9.1-.8-.3-.5-.6.6-.6 1.1-.1 1.7.2 1.3.5zm233 2.6c-.3.8-.6.5-.6-.6-.1-1.1.2-1.7.5-1.3.3.3.4 1.2.1 1.9zM19 235c0 .5-.2 1-.4 1-.3 0-.8-.5-1.1-1-.3-.6-.1-1 .4-1 .6 0 1.1.4 1.1 1zm220.7.6c-.3.3-1.2.4-1.9.1-.8-.3-.5-.6.6-.6 1.1-.1 1.7.2 1.3.5zm-195.2 4.6c.7.7.1.8-2 .3-1.6-.4-4.8-.7-7-.7-3.2.1-3.6-.1-2-.8 2.4-1.1 9.6-.3 11 1.2zm6.7 1.5c-1 .4-1 .8-.1 1.9 1.3 1.6.1 1.8-2.1.4-1.3-.9-1.3-1.1 0-2 .8-.5 2-.9 2.5-.9.6 0 .4.3-.3.6zM237 244c0 .5-.4 1-1 1-.5 0-1-.5-1-1 0-.6.5-1 1-1 .6 0 1 .4 1 1zm-200.5 6.8c0 5.2-2 6.8-3.1 2.5-.4-1.3-1.1-2.3-1.8-2.3-.6 0-.2-.6.9-1.2s2.4-1.7 2.8-2.5c1.2-1.9 1.2-1.8 1.2 3.5zm16.2-3.3c1 1 1.4 2.9 1.1 5.5-.2 2.9.1 4.1 1.2 4.4.8.3.3.4-1.2.2-3.2-.4-3.5.1-1 2 .9.7 1.2 1.4.6 1.4s-2.3-1.1-3.7-2.4c-2.9-2.7-3.3-7.9-.7-10.9 1.9-2 1.8-2 3.7-.2zm-6.7.9c0 .9-3.9 1.3-5.1.5-1-.6-.4-.9 1.9-.9 1.7 0 3.2.2 3.2.4zm-14.8 12.8c.2 2 0 3.4-.4 3.2-.4-.3-.8-2.4-.7-4.7.1-4.7.6-4.1 1.1 1.5z"/><path d="M123.4 63.9c-2.9 1.1-6.2 2.6-7.5 3.4-1.3.9-5.5 2.4-9.4 3.3-5.2 1.3-8.2 2.8-11.8 5.8-4.7 3.9-4.8 4.1-2.9 5.6 7 5.4 11.1 6.8 22.7 8 5 .5 10.7 1.6 12.7 2.5 4.7 1.9 9.7 1.9 14.5 0 2.1-.8 9.2-2.1 15.9-2.8 10.8-1.2 12.6-1.7 16.7-4.6 2.5-1.7 4.9-3.5 5.2-4.1.3-.5-1.9-2.8-5-5.1-4.1-3.1-7.3-4.5-13.2-5.9-4.3-1-10.3-3.1-13.3-4.6-7.2-3.6-17.1-4.2-24.6-1.5zM78.4 105.7c-.5 1-.9 4.3-1 7.3-.2 3-.3 6.4-.4 7.4-.3 4.8-.9 4.7 58.1 4.7 65.2 0 60.6.8 60.1-10.7-.4-9.1-2.2-10.9-10.3-10.1-5.5.5-9.1 1.9-13.9 5.7-7.9 6.1-63 5.8-73-.5-8.8-5.6-17.9-7.3-19.6-3.8zM80 148c-2.5.5-6.3 1.2-8.5 1.5-5.4.9-7.7 2.3-7.3 4.3.2.9 1.4 2 2.8 2.4 3.2.9 49.2 2.8 66.6 2.8 17.5 0 18.8.3 20.9 5 .9 2.1 1.6 5.5 1.5 7.6-.7 10.8 0 17.1 2.2 19.9 2 2.6 2.2 2.7 3.5.9.7-1 1.3-4.1 1.3-6.8 0-7 2.6-18.5 4.7-20.8 2.8-3.1 16.8-6.8 26-6.8 7.1 0 10.6-1 9.1-2.5s-18.3-3.5-29.3-3.5c-7.1 0-14.8-.4-17-.9-9.4-2.1-69-4.5-76.5-3.1z"/><path d="M79.3 181c-2.8 1.1-3.6 4-2.3 7.6.6 1.5.9 3.8.6 4.9-.3 1.2-.2 6.4.3 11.8 1.2 14.9 5 19.2 18.2 20.2 4.1.4 12.4 1.3 18.4 2.1 19.5 2.6 21 2.7 31.1 1.1 5.4-.9 14.6-2.1 20.4-2.7 19.3-2 18.3-1.7 23-6.5 3.9-4 4.5-5.3 5.3-10.8 2.5-16.8.3-27.7-5.4-27.7-3.2 0-4.9 2.3-4.9 6.6 0 1.4-.7 4.7-1.5 7.3-.8 2.5-2.2 7.2-3.2 10.5-2.3 8.1-4.6 9.1-21.3 9.1-7.8 0-13.3-.5-14.6-1.2-1.1-.7-4-3.6-6.2-6.6-3.4-4.3-4.2-6.2-4.2-9.6 0-2.3-.7-5.7-1.5-7.7-2.3-5.5-7.3-7.1-23.5-7.9-7.4-.3-16.4-.7-20-1-3.6-.2-7.5 0-8.7.5zM257 209.5c0 .9-.9 1.5-2.3 1.5-1.2 0-2.8.9-3.5 2-1.4 2.2-.9 2.5 1.8 1 1.6-.9 1.8-.8 1.3.6-.4 1.2-.3 1.5.5 1 .6-.4 2-.1 3.1.6 1.7 1 2.3 1 3.3-.1 1.1-1.1 1-1.2-.1-.6-1 .6-1.2.4-.7-.4.5-.7 1.2-.9 1.9-.3 1.1.7 1.9.8 4.3.3 1-.2-3.7-4.6-6.3-6-2.8-1.5-3.3-1.4-3.3.4zM219.3 245.5l-3.2 3.3 2.4.5c1.4.2 2.3.1 2-.2-.2-.4.4-.7 1.4-.7 1 0 1.8.6 1.8 1.3 0 .7-.4 1.3-.9 1.3-.4 0-.8.7-.8 1.5s.5 1.5 1.1 1.5c.5 0 .7-.5.4-1-.3-.6-.1-1 .4-1 .6 0 1.1.4 1.1 1 0 .5.5 1 1.2 1 .9 0 .9-.3 0-1.2-.7-.7-1.2-1.9-1.2-2.7 0-1.1.4-1 2 .4 1.8 1.7 2 1.7 1.4.2-.5-1.3-.2-1.6 1-1.1.9.3 1.6.1 1.6-.4 0-.6-1.7-1.2-3.7-1.4-3.4-.3-3.8-.6-3.7-3.1 0-3.4-.4-3.3-4.3.8zM212.7 249.4c-1.7 1.7-2.3 3.6-1.1 3.6 1.2 0 3.5-3.1 3.2-4.1-.3-.8-1-.6-2.1.5z"/><path d="M209.2 250.3c-.7.8-.7 1.8-.2 2.7 1.3 2 1.2 3.3 0 2.5-.5-.3-1 .1-1 .9 0 .9.7 1.6 1.5 1.6 2.1 0 3.1-3 1.5-4-.7-.4-1-1.7-.7-2.9.6-2.4.4-2.6-1.1-.8zM126.4 251.9c-1.2.5-4.2.9-6.8.9-4.6 0-11.7 2.8-12.3 4.8-.2.6 1.4 2.2 3.5 3.7 2.1 1.4 4.5 3.9 5.2 5.6l1.2 3.1h14.3c11.8 0 14.4-.3 14.9-1.5.3-.9 1.8-1.5 3.4-1.5 1.6 0 3.6-.7 4.3-1.6.8-.9 3.1-2.7 5.1-4 4.6-3 4.8-4.5.6-6.3-5.5-2.5-29.7-4.7-33.4-3.2zM223 256.1c0 .5.5.7 1 .4.6-.3 1-.8 1-1.1 0-.2-.4-.4-1-.4-.5 0-1 .5-1 1.1zM66.3 258.6c1.5 2.8 1.4 3.1-.5 4.3-1.7 1-1.8 1.5-.6 2.8 1.1 1.5 1 1.6-.7 1-1.9-.7-1.9-.6-.2.7 1.4 1.1 1.5 1.5.5 2-.7.3.5.4 2.7.3 3.8-.2 4-.4 4.3-3.7.2-2.9-.3-4.1-3.4-7l-3.6-3.5 1.5 3.1zM203.6 257c-3.9 1.2-6.6 3.9-6.6 6.7 0 1.9-.5 2.3-3.3 2.3-2.1 0-3.8-.7-4.7-2-1.7-2.4-3.6-2.6-5.6-.6-2 2-1.8 2.3 1.5 1.8 2.1-.3 3.3.2 4.8 2.2 1.9 2.4 6.2 3.9 4.8 1.7-.3-.5-.1-1.2.5-1.6.6-.3 1.3.1 1.6.9.5 1.2 2 1.6 6 1.6 5.3 0 5.4 0 5.4-2.9 0-1.7-.5-3.3-1.1-3.7-.8-.4-.7-.9.2-1.5.9-.6 1-.9.2-.9-.6 0-1-1.1-.8-2.5.1-1.4.2-2.5.1-2.4 0 0-1.4.5-3 .9zM213.2 257.6c-1.5 1.6-.8 5 1.1 5.7.9.3 1.3-.5 1.2-2.9-.2-4.1-.6-4.6-2.3-2.8zM61 258.1c0 .5.5.7 1 .4.6-.3 1-.8 1-1.1 0-.2-.4-.4-1-.4-.5 0-1 .5-1 1.1zM48.5 263c.3.5 1.1 1 1.6 1 .6 0 .7-.5.4-1-.3-.6-1.1-1-1.6-1-.6 0-.7.4-.4 1zM81.7 264.5c-1.5.7-3.9 1.5-5.4 1.7-2.4.4-2.6.5-.9 1.3 1.2.5 2.8.2 4.8-1 1.6-.9 4-1.5 5.4-1.2 2.9.5 3.1.1.6-1.2-1.3-.7-2.7-.6-4.5.4z"/></svg>