<?xml version="1.0" standalone="no"?>
<!DOCTYPE svg PUBLIC "-//W3C//DTD SVG 20010904//EN"
 "http://www.w3.org/TR/2001/REC-SVG-20010904/DTD/svg10.dtd">
<svg version="1.0" xmlns="http://www.w3.org/2000/svg"
 width="270.000000pt" height="270.000000pt" viewBox="0 0 270.000000 270.000000"
 preserveAspectRatio="xMidYMid meet">
<metadata>
Created by potrace 1.14, written by Peter Selinger 2001-2017
</metadata>
<g transform="translate(0.000000,270.000000) scale(0.100000,-0.100000)"
fill="#000000" stroke="none">
<path d="M0 1717 c1 -856 2 -980 15 -963 8 10 12 23 8 29 -3 6 -1 7 5 3 7 -4
12 -13 12 -21 0 -7 11 -16 25 -19 14 -4 25 -11 25 -17 0 -6 -7 -6 -21 1 -11 7
-32 9 -45 6 l-24 -6 0 -365 0 -365 190 0 c179 0 190 1 200 20 7 14 7 20 0 20
-5 0 -10 4 -10 9 0 5 8 7 18 4 16 -4 18 1 16 30 -2 28 2 36 22 45 23 11 24 10
24 -28 0 -22 -5 -40 -11 -40 -5 0 -7 -4 -4 -10 3 -5 13 -10 22 -10 11 0 14 6
9 24 -3 14 -2 27 3 30 14 9 61 -18 56 -31 -2 -7 2 -13 9 -13 16 0 26 21 26 56
0 17 4 22 15 18 19 -8 19 -7 -9 52 -13 27 -22 52 -19 57 2 4 17 7 34 7 25 0
29 -4 30 -27 0 -25 1 -26 9 -8 5 11 9 15 9 10 1 -6 11 -15 24 -20 15 -7 22
-18 22 -36 0 -17 4 -25 11 -22 7 2 15 0 19 -6 9 -15 41 -14 75 4 48 25 40 53
-37 126 -37 35 -76 75 -87 88 -12 14 -36 39 -53 57 -43 43 -53 71 -53 157 -1
40 -7 122 -14 182 -11 89 -18 117 -40 149 -14 21 -26 44 -26 50 0 7 -18 30
-39 53 -47 48 -55 82 -49 198 4 79 6 85 41 124 20 22 39 53 43 68 15 66 46
171 65 215 10 26 19 56 19 67 0 58 24 124 66 178 76 100 177 213 189 213 4 0
23 13 41 30 19 16 53 40 77 51 23 12 53 34 67 49 16 17 45 31 80 40 30 7 85
25 122 41 86 38 197 40 285 7 32 -11 89 -29 127 -39 57 -15 76 -25 105 -58 20
-21 48 -42 64 -45 15 -4 47 -26 72 -51 25 -24 53 -46 63 -49 11 -4 28 -22 38
-42 10 -19 28 -41 40 -49 11 -7 44 -48 73 -91 45 -66 55 -90 67 -155 7 -42 20
-92 28 -110 8 -19 26 -77 40 -129 14 -52 35 -106 46 -120 55 -68 55 -69 55
-187 l0 -114 -37 -35 c-24 -22 -41 -50 -48 -77 -6 -23 -20 -69 -31 -102 -35
-102 -49 -177 -49 -265 0 -47 -5 -92 -10 -100 -16 -26 -82 -99 -147 -162 -92
-90 -103 -104 -103 -130 0 -58 86 -59 112 -3 10 22 17 26 47 23 33 -3 36 -1
52 41 9 25 26 52 38 62 11 9 21 22 21 29 0 6 4 9 9 5 5 -3 12 -1 16 5 3 5 17
10 29 10 13 0 31 10 39 23 l16 22 -5 -25 c-3 -24 -3 -24 8 3 7 17 17 26 26 22
7 -3 18 -5 23 -5 6 0 1 -13 -11 -30 -12 -16 -24 -29 -28 -29 -18 3 -32 -2 -32
-10 0 -5 15 -5 35 -1 20 5 33 4 29 -1 -3 -5 19 -9 48 -9 42 -1 49 -3 35 -11
-10 -6 -31 -7 -47 -4 -28 6 -30 5 -30 -24 0 -32 16 -49 32 -33 17 17 46 1 52
-30 3 -17 6 -59 6 -94 l0 -64 -40 0 c-22 0 -40 5 -40 10 0 17 -87 12 -94 -6
-17 -44 -19 -44 234 -44 l240 0 0 241 0 241 -22 -6 c-13 -3 -26 -6 -30 -6 -5
0 -8 -13 -8 -30 0 -28 -2 -30 -39 -30 -45 0 -59 20 -33 47 16 16 16 17 0 10
-11 -4 -18 -2 -18 5 0 7 -13 9 -34 5 -30 -5 -33 -3 -30 19 1 13 -2 24 -7 24
-5 0 -9 -4 -9 -9 0 -5 -9 -13 -21 -16 -13 -4 -18 -12 -15 -21 3 -9 1 -12 -4
-9 -6 3 -10 -5 -10 -20 0 -23 2 -24 21 -15 11 6 25 9 32 6 7 -2 4 -5 -5 -5
-11 -1 -18 -9 -18 -19 0 -14 -8 -19 -30 -19 -16 0 -27 4 -24 9 3 4 0 8 -5 8
-6 0 -11 -7 -11 -16 0 -9 -5 -12 -12 -8 -8 5 -9 2 -5 -9 6 -16 -12 -24 -26
-11 -9 10 4 34 19 34 8 0 14 7 14 16 0 8 4 13 9 10 10 -7 22 35 23 83 1 17 5
28 10 25 4 -3 8 -1 8 4 0 5 14 15 30 22 16 7 30 15 31 19 6 49 32 81 65 81 13
0 26 5 29 10 10 17 38 12 31 -6 -3 -9 -2 -12 5 -8 13 7 51 -31 41 -42 -4 -4 1
-4 11 -1 10 4 23 7 28 7 5 0 9 33 9 74 0 63 -3 75 -17 78 -26 6 -76 -12 -94
-33 -13 -15 -18 -16 -22 -5 -3 7 0 19 6 26 9 10 9 11 0 6 -8 -5 -9 2 -1 26 6
18 13 39 14 46 2 7 19 19 38 27 19 8 37 20 40 27 3 7 3 0 -1 -15 -5 -25 -3
-28 13 -25 18 3 19 22 22 483 2 477 2 481 -18 482 -11 1 -20 -4 -20 -13 0 -8
-5 -14 -10 -14 -7 0 -7 6 0 19 16 31 13 64 -6 57 -10 -4 -14 -1 -12 6 5 13 9
14 51 17 18 1 19 3 7 12 -11 8 -12 12 -2 16 8 3 12 31 12 89 l0 84 -30 0 c-17
0 -33 -7 -39 -17 -6 -10 -11 -14 -11 -9 0 5 6 17 14 25 8 9 21 33 29 53 14 33
14 36 0 31 -11 -4 -14 -2 -11 8 2 8 14 15 26 17 22 3 22 4 22 253 l0 249 -249
0 -250 0 -3 -22 c-4 -31 -34 -34 -50 -6 -17 29 -48 34 -40 6 3 -15 7 -16 13
-7 4 8 11 10 15 6 11 -10 -6 -23 -40 -31 -26 -6 -28 -5 -17 8 7 9 11 23 7 31
-5 13 -127 15 -1046 15 l-1040 0 0 -983z m1955 923 c-4 -6 -1 -18 6 -26 17
-21 5 -28 -15 -9 -20 21 -21 45 0 45 8 0 12 -5 9 -10z m55 -80 c0 -5 6 -7 14
-4 17 6 31 -12 16 -21 -5 -3 -10 0 -10 7 0 9 -3 9 -10 -2 -7 -11 -10 -11 -10
-2 0 7 -4 11 -8 8 -5 -3 -9 1 -9 9 0 8 4 15 9 15 4 0 8 -4 8 -10z m103 3 c-7
-2 -19 -2 -25 0 -7 3 -2 5 12 5 14 0 19 -2 13 -5z m-1839 -28 c-6 -16 -24 -21
-24 -7 0 11 11 22 21 22 5 0 6 -7 3 -15z m1840 -19 c-5 18 -5 18 10 0 15 -18
17 -18 34 -3 10 9 22 17 27 17 5 0 0 -7 -11 -15 -16 -12 -16 -14 -3 -15 11 0
18 -11 22 -32 2 -18 3 -35 1 -37 -5 -5 -44 40 -44 51 0 4 -13 8 -30 8 -19 0
-33 7 -40 21 -11 20 -11 20 14 3 25 -16 26 -16 20 2z m-1854 -9 c0 -1 -4 -17
-9 -35 -12 -39 -5 -42 10 -4 6 15 13 22 16 16 7 -19 -16 -64 -32 -64 -8 0 -15
6 -15 14 0 29 13 76 21 76 5 0 9 -1 9 -3z m2054 -23 c-6 -3 -10 -19 -9 -37 2
-26 -1 -33 -16 -33 -14 0 -18 6 -14 21 3 11 2 14 -1 7 -3 -6 -9 -10 -12 -8 -4
2 -8 -7 -8 -20 -1 -16 10 -34 32 -54 36 -31 41 -44 22 -56 -6 -4 -8 -3 -4 4 3
6 2 13 -4 17 -5 3 -10 1 -10 -4 0 -7 -7 -7 -20 1 -11 7 -18 19 -15 26 3 7 1
11 -4 8 -4 -3 -13 6 -20 20 -6 14 -7 23 -2 20 5 -3 11 1 15 9 3 9 0 15 -9 15
-8 0 -15 5 -15 10 0 6 5 10 11 10 6 0 8 7 5 16 -6 15 -4 15 10 3 16 -13 16
-12 5 9 -11 21 -10 22 31 21 24 0 38 -3 32 -5z m86 -119 c0 -19 -3 -36 -7 -36
-60 -9 -59 -9 -59 32 1 37 2 39 34 39 30 0 32 -2 32 -35z m-2293 -11 c-3 -3
-12 -4 -19 -1 -8 3 -5 6 6 6 11 1 17 -2 13 -5z m53 -14 c0 -5 -5 -10 -11 -10
-5 0 -7 5 -4 10 3 6 8 10 11 10 2 0 4 -4 4 -10z m2212 -57 c10 -9 18 -23 18
-31 0 -10 -8 -6 -25 12 -14 15 -25 29 -25 32 0 9 14 3 32 -13z m115 -20 c-3
-10 -5 -4 -5 12 0 17 2 24 5 18 2 -7 2 -21 0 -30z m-2227 -23 c0 -5 -5 -10
-11 -10 -5 0 -7 5 -4 10 3 6 8 10 11 10 2 0 4 -4 4 -10z m2251 -34 c5 3 9 -2
9 -11 0 -9 -4 -13 -10 -10 -5 3 -10 -1 -10 -9 0 -19 -8 -20 -40 -1 l-25 14 28
1 c19 0 27 5 28 18 0 10 3 12 6 4 2 -6 9 -10 14 -6z m9 -116 c6 0 10 -5 10
-10 0 -6 -8 -5 -20 2 -13 9 -20 23 -19 43 l1 30 9 -32 c5 -18 14 -33 19 -33z
m50 -75 c0 -17 -26 -20 -35 -5 -4 6 1 7 12 3 16 -6 16 -4 -2 17 l-20 23 23
-12 c12 -6 22 -18 22 -26z m15 -43 c-3 -3 -11 0 -18 7 -9 10 -8 11 6 5 10 -3
15 -9 12 -12z m25 -22 c-13 -8 -13 -10 2 -10 21 0 29 -12 19 -29 -7 -11 -13
-9 -30 8 -27 27 -27 36 1 38 18 2 20 0 8 -7z m80 -994 c0 -3 -4 -8 -10 -11 -5
-3 -10 -1 -10 4 0 6 5 11 10 11 6 0 10 -2 10 -4z m-10 -36 c0 -5 -5 -10 -11
-10 -5 0 -7 5 -4 10 3 6 8 10 11 10 2 0 4 -4 4 -10z m-2560 -240 c0 -5 -2 -10
-4 -10 -3 0 -8 5 -11 10 -3 6 -1 10 4 10 6 0 11 -4 11 -10z m10 -30 c0 -5 -2
-10 -4 -10 -3 0 -8 5 -11 10 -3 6 -1 10 4 10 6 0 11 -4 11 -10z m35 -61 c-7
-10 -35 -1 -35 11 0 5 9 6 20 3 11 -3 17 -9 15 -14z m28 -116 c-7 -2 -19 -2
-25 0 -7 3 -2 5 12 5 14 0 19 -2 13 -5z m2283 -90 c-10 -10 -19 5 -10 18 6 11
8 11 12 0 2 -7 1 -15 -2 -18z m-2149 -9 c-3 -3 -12 -4 -19 -1 -8 3 -5 6 6 6
11 1 17 -2 13 -5z m2330 -26 c-3 -8 -6 -5 -6 6 -1 11 2 17 5 13 3 -3 4 -12 1
-19z m-2467 2 c0 -5 -2 -10 -4 -10 -3 0 -8 5 -11 10 -3 6 -1 10 4 10 6 0 11
-4 11 -10z m2207 -6 c-3 -3 -12 -4 -19 -1 -8 3 -5 6 6 6 11 1 17 -2 13 -5z
m-1952 -46 c7 -7 1 -8 -20 -3 -16 4 -48 7 -70 7 -32 -1 -36 1 -20 8 24 11 96
3 110 -12z m67 -15 c-10 -4 -10 -8 -1 -19 13 -16 1 -18 -21 -4 -13 9 -13 11 0
20 8 5 20 9 25 9 6 0 4 -3 -3 -6z m1858 -23 c0 -5 -4 -10 -10 -10 -5 0 -10 5
-10 10 0 6 5 10 10 10 6 0 10 -4 10 -10z m-2005 -68 c0 -52 -20 -68 -31 -25
-4 13 -11 23 -18 23 -6 0 -2 6 9 12 11 6 24 17 28 25 12 19 12 18 12 -35z
m162 33 c10 -10 14 -29 11 -55 -2 -29 1 -41 12 -44 8 -3 3 -4 -12 -2 -32 4
-35 -1 -10 -20 9 -7 12 -14 6 -14 -6 0 -23 11 -37 24 -29 27 -33 79 -7 109 19
20 18 20 37 2z m-67 -9 c0 -9 -39 -13 -51 -5 -10 6 -4 9 19 9 17 0 32 -2 32
-4z m-148 -128 c2 -20 0 -34 -4 -32 -4 3 -8 24 -7 47 1 47 6 41 11 -15z"/>
<path d="M1234 2061 c-29 -11 -62 -26 -75 -34 -13 -9 -55 -24 -94 -33 -52 -13
-82 -28 -118 -58 -47 -39 -48 -41 -29 -56 70 -54 111 -68 227 -80 50 -5 107
-16 127 -25 47 -19 97 -19 145 0 21 8 92 21 159 28 108 12 126 17 167 46 25
17 49 35 52 41 3 5 -19 28 -50 51 -41 31 -73 45 -132 59 -43 10 -103 31 -133
46 -72 36 -171 42 -246 15z"/>
<path d="M784 1643 c-5 -10 -9 -43 -10 -73 -2 -30 -3 -64 -4 -74 -3 -48 -9
-47 581 -47 652 0 606 -8 601 107 -4 91 -22 109 -103 101 -55 -5 -91 -19 -139
-57 -79 -61 -630 -58 -730 5 -88 56 -179 73 -196 38z"/>
<path d="M800 1220 c-25 -5 -63 -12 -85 -15 -54 -9 -77 -23 -73 -43 2 -9 14
-20 28 -24 32 -9 492 -28 666 -28 175 0 188 -3 209 -50 9 -21 16 -55 15 -76
-7 -108 0 -171 22 -199 20 -26 22 -27 35 -9 7 10 13 41 13 68 0 70 26 185 47
208 28 31 168 68 260 68 71 0 106 10 91 25 -15 15 -183 35 -293 35 -71 0 -148
4 -170 9 -94 21 -690 45 -765 31z"/>
<path d="M793 890 c-28 -11 -36 -40 -23 -76 6 -15 9 -38 6 -49 -3 -12 -2 -64
3 -118 12 -149 50 -192 182 -202 41 -4 124 -13 184 -21 195 -26 210 -27 311
-11 54 9 146 21 204 27 193 20 183 17 230 65 39 40 45 53 53 108 25 168 3 277
-54 277 -32 0 -49 -23 -49 -66 0 -14 -7 -47 -15 -73 -8 -25 -22 -72 -32 -105
-23 -81 -46 -91 -213 -91 -78 0 -133 5 -146 12 -11 7 -40 36 -62 66 -34 43
-42 62 -42 96 0 23 -7 57 -15 77 -23 55 -73 71 -235 79 -74 3 -164 7 -200 10
-36 2 -75 0 -87 -5z"/>
<path d="M2570 605 c0 -9 -9 -15 -23 -15 -12 0 -28 -9 -35 -20 -14 -22 -9 -25
18 -10 16 9 18 8 13 -6 -4 -12 -3 -15 5 -10 6 4 20 1 31 -6 17 -10 23 -10 33
1 11 11 10 12 -1 6 -10 -6 -12 -4 -7 4 5 7 12 9 19 3 11 -7 19 -8 43 -3 10 2
-37 46 -63 60 -28 15 -33 14 -33 -4z"/>
<path d="M2193 245 l-32 -33 24 -5 c14 -2 23 -1 20 2 -2 4 4 7 14 7 10 0 18
-6 18 -13 0 -7 -4 -13 -9 -13 -4 0 -8 -7 -8 -15 0 -8 5 -15 11 -15 5 0 7 5 4
10 -3 6 -1 10 4 10 6 0 11 -4 11 -10 0 -5 5 -10 12 -10 9 0 9 3 0 12 -7 7 -12
19 -12 27 0 11 4 10 20 -4 18 -17 20 -17 14 -2 -5 13 -2 16 10 11 9 -3 16 -1
16 4 0 6 -17 12 -37 14 -34 3 -38 6 -37 31 0 34 -4 33 -43 -8z"/>
<path d="M2127 206 c-17 -17 -23 -36 -11 -36 12 0 35 31 32 41 -3 8 -10 6 -21
-5z"/>
<path d="M2092 197 c-7 -8 -7 -18 -2 -27 13 -20 12 -33 0 -25 -5 3 -10 -1 -10
-9 0 -9 7 -16 15 -16 21 0 31 30 15 40 -7 4 -10 17 -7 29 6 24 4 26 -11 8z"/>
<path d="M1264 181 c-12 -5 -42 -9 -68 -9 -46 0 -117 -28 -123 -48 -2 -6 14
-22 35 -37 21 -14 45 -39 52 -56 l12 -31 143 0 c118 0 144 3 149 15 3 9 18 15
34 15 16 0 36 7 43 16 8 9 31 27 51 40 46 30 48 45 6 63 -55 25 -297 47 -334
32z"/>
<path d="M2230 139 c0 -5 5 -7 10 -4 6 3 10 8 10 11 0 2 -4 4 -10 4 -5 0 -10
-5 -10 -11z"/>
<path d="M663 114 c15 -28 14 -31 -5 -43 -17 -10 -18 -15 -6 -28 11 -15 10
-16 -7 -10 -19 7 -19 6 -2 -7 14 -11 15 -15 5 -20 -7 -3 5 -4 27 -3 38 2 40 4
43 37 2 29 -3 41 -34 70 l-36 35 15 -31z"/>
<path d="M2036 130 c-39 -12 -66 -39 -66 -67 0 -19 -5 -23 -33 -23 -21 0 -38
7 -47 20 -17 24 -36 26 -56 6 -20 -20 -18 -23 15 -18 21 3 33 -2 48 -22 19
-24 62 -39 48 -17 -3 5 -1 12 5 16 6 3 13 -1 16 -9 5 -12 20 -16 60 -16 53 0
54 0 54 29 0 17 -5 33 -11 37 -8 4 -7 9 2 15 9 6 10 9 2 9 -6 0 -10 11 -8 25
1 14 2 25 1 24 0 0 -14 -5 -30 -9z"/>
<path d="M2132 124 c-15 -16 -8 -50 11 -57 9 -3 13 5 12 29 -2 41 -6 46 -23
28z"/>
<path d="M610 119 c0 -5 5 -7 10 -4 6 3 10 8 10 11 0 2 -4 4 -10 4 -5 0 -10
-5 -10 -11z"/>
<path d="M485 70 c3 -5 11 -10 16 -10 6 0 7 5 4 10 -3 6 -11 10 -16 10 -6 0
-7 -4 -4 -10z"/>
<path d="M817 55 c-15 -7 -39 -15 -54 -17 -24 -4 -26 -5 -9 -13 12 -5 28 -2
48 10 16 9 40 15 54 12 29 -5 31 -1 6 12 -13 7 -27 6 -45 -4z"/>
</g>
</svg>
